<?xml version="1.0" standalone="no"?><!DOCTYPE svg PUBLIC "-//W3C//DTD SVG 1.1//EN" "http://www.w3.org/Graphics/SVG/1.1/DTD/svg11.dtd"><svg class="icon" width="16px" height="16.00px" viewBox="0 0 1024 1024" version="1.1" xmlns="http://www.w3.org/2000/svg"><path fill="#cdcdcd" d="M512 17.706667A494.293333 494.293333 0 1 0 1006.293333 512 494.293333 494.293333 0 0 0 512 17.706667z m0 917.333333A423.68 423.68 0 1 1 935.68 512 424.106667 424.106667 0 0 1 512 935.68zM618.666667 472.533333a141.226667 141.226667 0 1 0-212.266667 0 264.96 264.96 0 0 0-155.52 201.173334 35.626667 35.626667 0 0 0 34.986667 41.173333 34.986667 34.986667 0 0 0 34.133333-29.226667 194.133333 194.133333 0 0 1 384 0 34.986667 34.986667 0 0 0 34.773333 29.44 35.626667 35.626667 0 0 0 34.986667-41.173333A264.96 264.96 0 0 0 618.666667 472.533333z m-106.666667-21.333333a70.613333 70.613333 0 1 1 70.613333-70.613333A70.613333 70.613333 0 0 1 512 450.133333z" /></svg>